<svg id="Layer_1" data-name="Layer 1" xmlns="http://www.w3.org/2000/svg" viewBox="0 0 16 14.4"><title>card-find</title><path fill="#FFF" d="M1.135,8.89V4H7V3.009H1.135V2.251a.124.124,0,0,1,.113-.113h9.64A.124.124,0,0,1,11,2.251V3.273h1.135V2.251A1.259,1.259,0,0,0,10.888,1H1.248A1.259,1.259,0,0,0,0,2.251V8.89a1.259,1.259,0,0,0,1.248,1.248H4.539V9H1.248A.124.124,0,0,1,1.135,8.89Z" transform="translate(0 -1.003)"/><rect fill="#FFF" x="1.998" y="5.995" width="2.003" height="1.002"/><path fill="#FFF" d="M16,14.564l-3.4-3.4a4.074,4.074,0,1,0-.885.715L15.24,15.4ZM6.808,8.436a2.837,2.837,0,1,1,2.837,2.837A2.837,2.837,0,0,1,6.808,8.436v0Z" transform="translate(0 -1.003)"/></svg>