<?xml version="1.0" encoding="utf-8"?>
<!-- Generator: Adobe Illustrator 23.0.6, SVG Export Plug-In . SVG Version: 6.00 Build 0)  -->
<svg version="1.1" id="Layer_1" xmlns="http://www.w3.org/2000/svg" xmlns:xlink="http://www.w3.org/1999/xlink" x="0px" y="0px"
	 viewBox="0 0 16 16" style="enable-background:new 0 0 16 16;" xml:space="preserve">
<style type="text/css">
	.st0{fill:none;}
	.st1{filter:url(#Adobe_OpacityMaskFilter);}
	.st2{fill-rule:evenodd;clip-rule:evenodd;fill:#FFF;}
	.st3{mask:url(#mask-2_1_);}
</style>
<title>icon / illustrative / globe</title>
<desc>Created with Sketch.</desc>
<g>
	<rect id="bb" x="0" class="st0" width="16" height="16"/>
	<g id="Combined-Shape">
	</g>
	<defs>
		<filter id="Adobe_OpacityMaskFilter" filterUnits="userSpaceOnUse" x="0" y="0" width="16" height="16">
			<feColorMatrix  type="matrix" values="1 0 0 0 0  0 1 0 0 0  0 0 1 0 0  0 0 0 1 0"/>
		</filter>
	</defs>
	<mask maskUnits="userSpaceOnUse" x="0" y="0" width="16" height="16" id="mask-2_1_">
		<g class="st1">
			<path id="path-1_1_" class="st2" d="M4.5,0.8l0.7,0.7L4.9,1.8c-1,1-1.6,2.4-1.6,3.9s0.6,2.9,1.6,3.9s2.4,1.6,3.9,1.6
				s2.9-0.6,3.9-1.6l0,0L13,9.3l0.7,0.7l-0.4,0.4c-1.1,1.1-2.5,1.8-4.1,1.9l0,0v2h4.5v1h-10v-1h4.5v-2c-1.5-0.1-3-0.8-4.1-1.9
				C2.9,9.1,2.2,7.5,2.2,5.7s0.7-3.4,1.9-4.6l0,0L4.5,0.8z M8.7,1.2c1.2,0,2.3,0.5,3.2,1.3c0.8,0.9,1.3,2,1.3,3.2
				c0,2.4-2.1,4.5-4.5,4.5c-1.2,0-2.3-0.5-3.2-1.3c-0.8-0.9-1.3-2-1.3-3.2C4.2,3.3,6.3,1.2,8.7,1.2z M7.3,7.9L6.7,8.5
				C7.3,9,8.1,9.2,8.8,9.2C8.4,8.9,7.8,8.5,7.3,7.9L7.3,7.9z M8.8,6.4L8,7.2c1,1,1.9,1.5,2.3,1.7c0.2-0.1,0.4-0.2,0.6-0.4l0,0
				L8.8,6.4z M5.3,5.6c0,0,0,0.1,0,0.1c0,0.8,0.3,1.5,0.7,2.1l0,0l0.6-0.6C6,6.6,5.6,6.1,5.3,5.6z M10.2,4.9L9.5,5.7l2.1,2.1
				c0.1-0.2,0.3-0.4,0.4-0.6C11.7,6.9,11.2,6,10.2,4.9L10.2,4.9z M6,3.6C5.8,3.8,5.7,4,5.6,4.2c0.2,0.3,0.7,1.2,1.7,2.3l0,0L8,5.7
				L6,3.6z M11.5,3.6L11,4.2c0.6,0.6,1,1.2,1.3,1.6c0,0,0-0.1,0-0.1C12.2,4.9,12,4.2,11.5,3.6L11.5,3.6z M7.3,2.6
				C7.1,2.6,6.9,2.8,6.7,2.9l0,0L8.8,5l0.8-0.8C8.5,3.2,7.6,2.7,7.3,2.6z M8.8,2.2c0,0-0.1,0-0.1,0c0.5,0.3,1,0.7,1.6,1.3l0,0
				l0.6-0.6C10.2,2.5,9.5,2.2,8.8,2.2z"/>
		</g>
	</mask>
	<g class="st3">
		<rect fill="#000" id="Rectangle" class="st2" width="16" height="16"/>
	</g>
</g>
</svg>
