<?xml version="1.0" encoding="utf-8"?>
<!-- Generator: Adobe Illustrator 22.1.0, SVG Export Plug-In . SVG Version: 6.00 Build 0)  -->
<svg version="1.1" id="_x31_b02fb91-a45f-4df8-8f65-88435e78bf40"
	 xmlns="http://www.w3.org/2000/svg" xmlns:xlink="http://www.w3.org/1999/xlink" x="0px" y="0px" viewBox="0 0 16 16"
	 style="enable-background:new 0 0 16 16;" xml:space="preserve">
<title>absa_icon</title>
<path fill="#000" d="M15,12.5c0,0.3-0.2,0.5-0.5,0.5h-13C1.2,13,1,12.8,1,12.5V9H0v3.5C0,13.3,0.7,14,1.5,14h13c0.8,0,1.5-0.7,1.5-1.5V9h-1V12.5
	z"/>
<path fill="#000" d="M12,3.5V3c0-0.8-0.7-1.5-1.5-1.5h-5C4.7,1.5,4,2.2,4,3v0.5H0V8h6v1h4V8h6V3.5H12z M5,3c0-0.3,0.2-0.5,0.5-0.5h5
	C10.8,2.5,11,2.7,11,3v0.5H5V3z M9,8H7V7h2V8z M15,7h-5V6H6v1H1V4.5h14V7z"/>
</svg>
