<?xml version="1.0" encoding="UTF-8"?>
<svg viewBox="0 0 16 16" version="1.1" xmlns="http://www.w3.org/2000/svg" xmlns:xlink="http://www.w3.org/1999/xlink">
    <!-- Generator: Sketch 57.1 (83088) - https://sketch.com -->
    <title>icon / core / transactional / travel-plane</title>
    <desc>Created with Sketch.</desc>
    <defs>
        <path fill="#FFF" d="M6.47255012,10.9839485 L4.50790082,12.6627943 L4.50790082,15.5837861 L8.00249828,14.1127975 L11.4861033,15.624758 L11.5040909,12.6687902 L9.56042721,10.9579664 L9.94816064,8.29979389 L16,9.81874961 L15.9950034,7.91206046 C15.9930048,7.30247955 15.6032727,6.74786085 15.0236712,6.53300856 L9.47348698,4.47042658 L9.47348698,1.82224721 C9.47348698,1.02379614 8.81493973,0.375242021 8.00549622,0.375242021 C7.19605271,0.375242021 6.53750546,1.02379614 6.53750546,1.82224721 L6.53850478,4.26456811 L6.52751234,4.433452 L0.970332896,6.51102367 C0.391730685,6.72687527 0.00299793892,7.28149397 0.00299793892,7.89107489 L0,9.86172007 L6.09081257,8.32277809 L6.47255012,10.9839485 Z M1.00231091,7.89107489 C1.00231091,7.69620886 1.13022297,7.51733183 1.31909312,7.44737993 L7.48385485,5.1419649 L7.53681844,1.82324652 C7.53681844,1.58041347 7.75167073,1.37555431 8.00549622,1.37555431 C8.26431828,1.37555431 8.47417401,1.57641621 8.47417401,1.82324652 L8.47417401,5.16594841 L14.6769096,7.47036412 C14.8667791,7.54031603 14.9956905,7.71919305 14.9956905,7.91405908 L14.9966898,8.53663107 L9.11873087,7.06164512 L8.49216164,11.3496971 L10.5027793,13.1174817 L10.4967835,14.1058023 L8.00849416,13.0255449 L5.50721379,14.0788208 L5.50721379,13.1234776 L7.53981638,11.3866717 L6.92224096,7.08063207 L1.0013116,8.57660359 L1.00231091,7.89107489 Z" id="path-1"></path>
    </defs>
    <g id="icon-/-core-/-transactional-/-travel-plane" stroke="none" stroke-width="1" fill="none" fill-rule="evenodd">
        <rect id="bb" x="0" y="-1.77635684e-14" width="16" height="16.0000001"></rect>
        <mask id="mask-2" fill="#FFF">
            <use xlink:href="#path-1"></use>
        </mask>
        <g id="Combined-Shape"></g>
        <g id="colour/graphite" mask="url(#mask-2)" fill="#000000">
            <rect fill="#000" id="Rectangle" x="0" y="0" width="16" height="16"></rect>
        </g>
    </g>
</svg>