<?xml version="1.0" encoding="UTF-8"?>
<svg viewBox="0 0 16 16" version="1.1" xmlns="http://www.w3.org/2000/svg" xmlns:xlink="http://www.w3.org/1999/xlink">
    <!-- Generator: Sketch 57.1 (83088) - https://sketch.com -->
    <title>icon / miscellaneuos / shield-protect-plus</title>
    <desc>Created with Sketch.</desc>
    <defs>
        <path fill="#FFF" d="M1.00349823,2.01599199 L1.00349823,6.75762119 C1.00349823,11.3413293 3.97601198,15.3073463 7.91604198,15.9850075 L8.0009995,16 L8.08595702,15.9850075 C12.0249875,15.3073463 14.9965018,11.3403298 14.9965018,6.75762119 L14.9965018,2.01599199 L8.0009995,-2.49998493e-08 L1.00349823,2.01599199 Z M2.00299848,2.76661668 L7.45427286,1.19640178 L7.45427286,7.50724638 L2.03198399,7.50724638 C2.01299348,7.25937031 2.00299848,7.00949525 2.00299848,6.75762119 L2.00299848,2.76661668 Z M2.16991502,8.50574713 L7.45427286,8.50574713 L7.45427286,14.8545727 C4.79560219,14.1009495 2.74462767,11.5892054 2.16991502,8.50574713 Z M8.45377311,14.8755622 L8.45377311,8.50574713 L13.830085,8.50574713 C13.2493753,11.6231884 11.1574213,14.1539231 8.45377311,14.8755622 Z M13.9970015,6.75762119 C13.9970015,7.00949525 13.9870065,7.25937031 13.968016,7.50724638 L8.45377311,7.50724638 L8.45377311,1.16941527 L13.9970015,2.76661668 L13.9970015,6.75762119 Z" id="path-1"></path>
    </defs>
    <g id="icon-/-miscellaneuos-/-shield-protect-plus" stroke="none" stroke-width="1" fill="none" fill-rule="evenodd">
        <rect id="bb" x="0" y="0" width="16" height="16"></rect>
        <mask id="mask-2" fill="#FFF">
            <use xlink:href="#path-1"></use>
        </mask>
        <g id="Combined-Shape"></g>
        <g id="colour/graphite" mask="url(#mask-2)" fill="#000000">
            <rect fill="#000" id="Rectangle" x="0" y="0" width="16" height="16"></rect>
        </g>
    </g>
</svg>