<?xml version="1.0" encoding="UTF-8"?>
<svg viewBox="0 0 16 16" version="1.1" xmlns="http://www.w3.org/2000/svg" xmlns:xlink="http://www.w3.org/1999/xlink">
    <!-- Generator: Sketch 57.1 (83088) - https://sketch.com -->
    <title>icon / core / transactional / borrow</title>
    <desc>Created with Sketch.</desc>
    <defs>
        <path fill="#FFF" d="M12.502,-5.00000752e-08 L12.925,2.07999996 L13.618,2.07999996 C14.3351765,2.07999996 14.9265674,2.6885536 14.9936613,3.46546384 L15,3.61299997 L15,5.55999998 L14,5.55999998 L14,3.61299997 C14,3.35344442 13.8617284,3.12944441 13.6856187,3.08287103 L13.618,3.07399997 L1.38199996,3.07399997 C1.19799996,3.07399997 1.0392839,3.26916046 1.00628527,3.5176104 L0.99999995,3.61299997 L0.99999995,14.467 C0.99999995,14.7265556 1.13827156,14.9505556 1.3143813,14.997129 L1.38199996,15.006 L13.618,15.006 C13.802,15.006 13.960716,14.8108395 13.9937146,14.5623896 L14,14.467 L14,12.52 L15,12.52 L15,14.467 C15,15.2632353 14.4507959,15.9186263 13.7508993,15.9929759 L13.618,15.9999999 L1.38199996,15.9999999 C0.664823484,15.9999999 0.0734324764,15.3914464 0.0063386433,14.6145362 L-4.99999855e-08,14.467 L-4.99999855e-08,3.61299997 C-4.99999855e-08,2.81676467 0.549204106,2.16137367 1.24910071,2.08702398 L1.38199996,2.07999996 L2.44999997,2.07999996 L12.502,-5.00000752e-08 Z M16,6.49999999 L16,11.5 L12.489,11.5 C11.116,11.5 10,10.384 10,9.01100001 C10,7.6718 11.0285056,6.58972639 12.3255286,6.50530322 L12.489,6.49999999 L16,6.49999999 Z M15,7.5 L12.489,7.5 C11.668,7.5 11,8.168 11,8.98900001 C11,9.78241178 11.5917232,10.4208062 12.3458107,10.4931661 L12.489,10.5 L15,10.5 L15,7.5 Z M12.5,8.5 C12.7761424,8.5 13,8.72385763 13,9 C13,9.27614238 12.7761424,9.5 12.5,9.5 C12.2238577,9.5 12,9.27614238 12,9 C12,8.72385763 12.2238577,8.5 12.5,8.5 Z M11.721,1.17699996 L7.356,2.07999996 L11.905,2.07999996 L11.721,1.17699996 Z" id="path-1"></path>
    </defs>
    <g id="icon-/-core-/-transactional-/-borrow" stroke="none" stroke-width="1" fill="none" fill-rule="evenodd">
        <rect id="bb" x="-1" y="1.13686838e-13" width="16" height="16"></rect>
        <mask id="mask-2" fill="#FFF">
            <use xlink:href="#path-1"></use>
        </mask>
        <g id="Combined-Shape"></g>
        <g id="colour/graphite" mask="url(#mask-2)" fill="#000000">
            <rect fill="#000" id="Rectangle" x="0" y="0" width="16" height="16"></rect>
        </g>
    </g>
</svg>