<?xml version="1.0" encoding="UTF-8"?>
<svg viewBox="0 0 16 16" version="1.1" xmlns="http://www.w3.org/2000/svg" xmlns:xlink="http://www.w3.org/1999/xlink">
    <!-- Generator: Sketch 57.1 (83088) - https://sketch.com -->
    <title>icon / core / transactional / bank</title>
    <desc>Created with Sketch.</desc>
    <defs>
        <path fill="#FFF" d="M14.5,2.27373675e-13 C15.2783529,2.27373675e-13 15.9202907,0.596152249 15.9931195,1.35576308 L16,1.5 L16,14.5 C16,15.2783529 15.4038478,15.9202907 14.6442369,15.9931195 L14.5,16 L1.5,16 C0.721647059,16 0.0797093426,15.4038478 0.00688052107,14.6442369 L0,14.5 L0,1.5 C0,0.721647059 0.596152249,0.0797093426 1.35576308,0.00688052107 L1.5,2.27373675e-13 L14.5,2.27373675e-13 Z M14.5,1 L1.5,1 C1.25555556,1 1.05061728,1.17777778 1.00809328,1.41042524 L1,1.5 L1,14.5 C1,14.7444444 1.17777778,14.9493827 1.41042524,14.9919067 L1.5,15 L14.5,15 C14.7444444,15 14.9493827,14.8222222 14.9919067,14.5895748 L15,14.5 L15,1.5 C15,1.225 14.775,1 14.5,1 Z M13,2.5 L13,13.5 L3,13.5 L3,11.5 L2,11.5 L2,10.5 L5,10.5 L5,11.5 L4,11.5 L4,12.5 L12,12.5 L12,3.5 L4,3.5 L4,4.5 L5,4.5 L5,5.5 L2,5.5 L2,4.5 L3,4.5 L3,2.5 L13,2.5 Z M4,6.5 L4,9.5 L3,9.5 L3,6.5 L4,6.5 Z M8,6.5 C8.827,6.5 9.5,7.173 9.5,8 C9.5,8.827 8.827,9.5 8,9.5 C7.173,9.5 6.5,8.827 6.5,8 C6.5,7.173 7.173,6.5 8,6.5 Z M8,7.5 C7.725,7.5 7.5,7.725 7.5,8 C7.5,8.275 7.725,8.5 8,8.5 C8.275,8.5 8.5,8.275 8.5,8 C8.5,7.725 8.275,7.5 8,7.5 Z" id="path-1"></path>
    </defs>
    <g id="icon-/-core-/-transactional-/-bank" stroke="none" stroke-width="1" fill="none" fill-rule="evenodd">
        <rect id="bb" x="0" y="-1.77635684e-14" width="16" height="16.0000001"></rect>
        <mask id="mask-2" fill="#FFF">
            <use xlink:href="#path-1"></use>
        </mask>
        <g id="Combined-Shape"></g>
        <g id="colour/graphite" mask="url(#mask-2)" fill="#000000">
            <rect fill="#000" id="Rectangle" x="0" y="0" width="16" height="16"></rect>
        </g>
    </g>
</svg>